<svg width="84" height="13" viewBox="0 0 84 13" fill="none" xmlns="http://www.w3.org/2000/svg">
<path d="M3.728 2.96L3.728 5.232L7.392 5.232L7.392 7.344L3.728 7.344L3.728 9.808L7.872 9.808L7.872 12L0.992 12L0.992 0.768L7.872 0.768L7.872 2.96L3.728 2.96ZM14.9283 12L13.2163 9.52L11.7763 12L8.81625 12L11.7603 7.44L8.73625 3.072L11.8083 3.072L13.5203 5.536L14.9603 3.072L17.9203 3.072L14.9283 7.568L18.0003 12L14.9283 12ZM18.5105 7.52C18.5105 6.60267 18.6812 5.79733 19.0225 5.104C19.3745 4.41067 19.8492 3.87733 20.4465 3.504C21.0438 3.13067 21.7105 2.944 22.4465 2.944C23.0758 2.944 23.6252 3.072 24.0945 3.328C24.5745 3.584 24.9425 3.92 25.1985 4.336L25.1985 3.072L27.9345 3.072L27.9345 12L25.1985 12L25.1985 10.736C24.9318 11.152 24.5585 11.488 24.0785 11.744C23.6092 12 23.0598 12.128 22.4305 12.128C21.7052 12.128 21.0438 11.9413 20.4465 11.568C19.8492 11.184 19.3745 10.6453 19.0225 9.952C18.6812 9.248 18.5105 8.43733 18.5105 7.52ZM25.1985 7.536C25.1985 6.85333 25.0065 6.31467 24.6225 5.92C24.2492 5.52533 23.7905 5.328 23.2465 5.328C22.7025 5.328 22.2385 5.52533 21.8545 5.92C21.4812 6.304 21.2945 6.83733 21.2945 7.52C21.2945 8.20267 21.4812 8.74667 21.8545 9.152C22.2385 9.54667 22.7025 9.744 23.2465 9.744C23.7905 9.744 24.2492 9.54667 24.6225 9.152C25.0065 8.75733 25.1985 8.21867 25.1985 7.536ZM41.3059 2.976C42.4152 2.976 43.2952 3.312 43.9459 3.984C44.6072 4.656 44.9379 5.58933 44.9379 6.784L44.9379 12L42.2179 12L42.2179 7.152C42.2179 6.576 42.0632 6.13333 41.7539 5.824C41.4552 5.504 41.0392 5.344 40.5059 5.344C39.9725 5.344 39.5512 5.504 39.2419 5.824C38.9432 6.13333 38.7939 6.576 38.7939 7.152L38.7939 12L36.0739 12L36.0739 7.152C36.0739 6.576 35.9192 6.13333 35.6099 5.824C35.3112 5.504 34.8952 5.344 34.3619 5.344C33.8285 5.344 33.4072 5.504 33.0979 5.824C32.7992 6.13333 32.6499 6.576 32.6499 7.152L32.6499 12L29.9139 12L29.9139 3.072L32.6499 3.072L32.6499 4.192C32.9272 3.81867 33.2899 3.52533 33.7379 3.312C34.1859 3.088 34.6925 2.976 35.2579 2.976C35.9299 2.976 36.5272 3.12 37.0499 3.408C37.5832 3.696 37.9992 4.10667 38.2979 4.64C38.6072 4.14933 39.0285 3.74933 39.5619 3.44C40.0952 3.13067 40.6765 2.976 41.3059 2.976ZM58.802 4.384C58.802 5.03467 58.6527 5.632 58.354 6.176C58.0553 6.70933 57.5967 7.14133 56.978 7.472C56.3593 7.80267 55.5913 7.968 54.674 7.968L52.978 7.968L52.978 12L50.242 12L50.242 0.768L54.674 0.768C55.57 0.768 56.3273 0.922666 56.946 1.232C57.5647 1.54133 58.0287 1.968 58.338 2.512C58.6473 3.056 58.802 3.68 58.802 4.384ZM54.466 5.792C54.9887 5.792 55.378 5.66933 55.634 5.424C55.89 5.17867 56.018 4.832 56.018 4.384C56.018 3.936 55.89 3.58933 55.634 3.344C55.378 3.09867 54.9887 2.976 54.466 2.976L52.978 2.976L52.978 5.792L54.466 5.792ZM59.6824 7.52C59.6824 6.60267 59.853 5.79733 60.1944 5.104C60.5464 4.41067 61.021 3.87733 61.6184 3.504C62.2157 3.13067 62.8824 2.944 63.6184 2.944C64.2477 2.944 64.797 3.072 65.2664 3.328C65.7464 3.584 66.1144 3.92 66.3704 4.336L66.3704 3.072L69.1064 3.072L69.1064 12L66.3704 12L66.3704 10.736C66.1037 11.152 65.7304 11.488 65.2504 11.744C64.781 12 64.2317 12.128 63.6024 12.128C62.877 12.128 62.2157 11.9413 61.6184 11.568C61.021 11.184 60.5464 10.6453 60.1944 9.952C59.853 9.248 59.6824 8.43733 59.6824 7.52ZM66.3704 7.536C66.3704 6.85333 66.1784 6.31467 65.7944 5.92C65.421 5.52533 64.9624 5.328 64.4184 5.328C63.8744 5.328 63.4104 5.52533 63.0264 5.92C62.653 6.304 62.4664 6.83733 62.4664 7.52C62.4664 8.20267 62.653 8.74667 63.0264 9.152C63.4104 9.54667 63.8744 9.744 64.4184 9.744C64.9624 9.744 65.421 9.54667 65.7944 9.152C66.1784 8.75733 66.3704 8.21867 66.3704 7.536ZM73.8218 0.16L73.8218 12L71.0858 12L71.0858 0.16L73.8218 0.16ZM79.4365 12.128C78.6578 12.128 77.9645 11.9947 77.3565 11.728C76.7485 11.4613 76.2685 11.0987 75.9165 10.64C75.5645 10.1707 75.3672 9.648 75.3245 9.072L78.0285 9.072C78.0605 9.38133 78.2045 9.632 78.4605 9.824C78.7165 10.016 79.0312 10.112 79.4045 10.112C79.7458 10.112 80.0072 10.048 80.1885 9.92C80.3805 9.78133 80.4765 9.60533 80.4765 9.392C80.4765 9.136 80.3432 8.94933 80.0765 8.832C79.8098 8.704 79.3778 8.56533 78.7805 8.416C78.1405 8.26667 77.6072 8.112 77.1805 7.952C76.7538 7.78133 76.3858 7.52 76.0765 7.168C75.7672 6.80533 75.6125 6.32 75.6125 5.712C75.6125 5.2 75.7512 4.736 76.0285 4.32C76.3165 3.89333 76.7325 3.55733 77.2765 3.312C77.8312 3.06667 78.4872 2.944 79.2445 2.944C80.3645 2.944 81.2445 3.22133 81.8845 3.776C82.5352 4.33067 82.9085 5.06667 83.0045 5.984L80.4765 5.984C80.4338 5.67467 80.2952 5.42933 80.0605 5.248C79.8365 5.06667 79.5378 4.976 79.1645 4.976C78.8445 4.976 78.5992 5.04 78.4285 5.168C78.2578 5.28533 78.1725 5.45067 78.1725 5.664C78.1725 5.92 78.3058 6.112 78.5725 6.24C78.8498 6.368 79.2765 6.496 79.8525 6.624C80.5138 6.79467 81.0525 6.96533 81.4685 7.136C81.8845 7.296 82.2472 7.56267 82.5565 7.936C82.8765 8.29867 83.0418 8.78933 83.0525 9.408C83.0525 9.93067 82.9032 10.4 82.6045 10.816C82.3165 11.2213 81.8952 11.5413 81.3405 11.776C80.7965 12.0107 80.1618 12.128 79.4365 12.128Z" fill="white"/>
</svg>
