<?xml version="1.0" encoding="utf-8"?>
<!-- Generator: Adobe Illustrator 24.1.2, SVG Export Plug-In . SVG Version: 6.00 Build 0)  -->
<svg version="1.1" id="Layer_1" xmlns="http://www.w3.org/2000/svg" xmlns:xlink="http://www.w3.org/1999/xlink" x="0px" y="0px"
	 viewBox="0 0 300 300" style="enable-background:new 0 0 300 300;" xml:space="preserve">
<style type="text/css">
	.st0{fill:#FFFFFF;}
</style>
<g>
	<path class="st0" d="M224.6,166.7c-0.1,41-33.5,74.5-74.4,74.5c-41.3,0-74.9-33.7-74.7-74.9c0.2-41,33.7-74.3,74.7-74.2
		C191.4,92.3,224.6,125.6,224.6,166.7z M98.2,179.1c-0.1-0.2-0.2-0.5-0.4-0.7c2.2-1.7,4.4-3.4,6.6-5.1c3.1-2.4,5.9-5,7.3-8.8
		c2.7-7.2-0.3-14.7-6.9-17.5c-5.9-2.5-13.2,0.5-16.3,6.7c-1.2,2.5-0.7,4.7,1.3,5.9c2,1.2,4.3,0.6,5.8-1.7c0.4-0.6,0.8-1.2,1.3-1.8
		c1.2-1.5,2.7-2.4,4.7-1.5c1.9,0.8,2.8,2.3,2.8,4.4c0,2.8-1.4,4.7-3.4,6.4c-2.6,2.1-5.3,4-7.8,6.2c-3.2,2.8-5.1,6.4-5.3,10.8
		c-0.1,3.3,1.5,5,4.8,5c5.1,0.1,10.2,0,15.3,0c2.9,0,4.7-1.6,4.7-4.1c0-2.6-1.7-4.1-4.8-4.2C104.6,179.1,101.4,179.1,98.2,179.1z
		 M133.3,179.1c0.6,6.6,1.5,8.5,4.3,8.2c5.2-0.5,4-4.7,4.3-8.1c3.3-0.4,8,0.9,8-4.3c0-5.3-4.8-3.7-8-4.2c-0.5-3.3,1-8-4.3-8
		c-5.3,0-3.7,4.8-4.3,8c-1.3,0-2.6,0-4.1,0c0-1,0-1.9,0-2.8c0-5.7,0-11.3,0-17c0-3.1-1.6-4.9-4.1-4.9c-2.5,0-4.1,1.8-4.2,4.9
		c0,7.8,0,15.5,0,23.3c0,3.3,1.6,4.9,4.9,4.9C128.3,179.1,130.7,179.1,133.3,179.1z M196.3,154.2c-0.5,0.9-0.7,1.3-0.9,1.7
		c-5.1,8.2-10.3,16.4-15.4,24.6c-1.5,2.4-1.1,4.9,1,6.2c2.1,1.3,4.4,0.7,6-1.8c1.4-2.2,2.8-4.4,4.1-6.6c5.3-8.5,10.6-17,15.9-25.5
		c2-3.3,0.7-6.8-2.8-6.9c-7.1-0.2-14.2-0.2-21.3,0c-2.8,0.1-4.5,2.9-3.5,5.4c0.8,2.1,2.5,2.8,4.7,2.8
		C187.9,154.2,191.8,154.2,196.3,154.2z M154.2,186.7c-0.1,2.6,1.2,4.3,3.2,4.7c2.3,0.4,4.2-0.7,4.8-3c1-4.2,1.8-8.4,2.6-12.6
		c1.9-9.6,3.8-19.2,5.7-28.8c0.5-2.5-0.8-4.4-3.1-5c-2.2-0.5-4.2,0.8-4.9,3.3c-0.1,0.4-0.2,0.8-0.3,1.2c-1.6,8.1-3.2,16.2-4.8,24.2
		C156.3,176.1,155.2,181.6,154.2,186.7z"/>
	<path class="st0" d="M58.9,137.5c-2.8,0-5.4,0-8.4,0c-0.2-34.8,12.8-63.2,40.7-84C124,29.2,168.2,27.4,202,48.9
		c32.2,20.5,47.4,50.4,47.6,88.6c-2.9,0-5.5,0-8.3,0c0.2-31.7-11.5-57.7-36.9-77c-17.1-13-36.7-18.9-58.1-17.9
		c-25.1,1.1-46.3,11-63.3,29.5C65.9,90.4,58.3,112.5,58.9,137.5z"/>
	<path class="st0" d="M67.1,175.1c0,7.8,0,15.7,0,23.5c0,3.9-1.4,5.3-5.3,5.3c-4.9,0-9.9,0-14.8,0c-7.7-0.1-13-5.3-13-12.9
		c0-10.7,0-21.4,0-32c0-7.6,5.1-12.8,12.7-13c5.2-0.1,10.4-0.1,15.5,0c3.4,0,4.8,1.5,4.9,4.9C67.2,158.9,67.1,167,67.1,175.1z"/>
	<path class="st0" d="M232.9,174.8c0-7.8,0-15.5,0-23.3c0-4.3,1.3-5.6,5.7-5.6c4.6,0,9.2,0,13.8,0c8.5,0.1,13.6,5.1,13.6,13.6
		c0,10.4,0,20.7,0,31.1c0,8.1-5.2,13.3-13.4,13.4c-4.9,0-9.7,0-14.6,0c-3.7,0-5.1-1.4-5.2-5.1c0-0.1,0-0.2,0-0.2
		C232.9,190.6,232.9,182.7,232.9,174.8z"/>
	<path class="st0" d="M240.9,212.3c2.8,0,5.3,0,8.4,0c-0.7,3.5-1.1,6.8-2,10c-6.2,22.7-26.6,38.8-50.1,39.5
		c-6.9,0.2-13.7,0.1-20.6,0.1c-0.5,0-1.1-0.1-1.7-0.2c0-2.7,0-5.2,0-8.1c1,0,2,0,2.9,0c8.2-0.2,16.4,0.4,24.4-0.6
		c20.3-2.6,35.9-19,38.5-39.2C240.8,213.3,240.8,212.9,240.9,212.3z"/>
	<path class="st0" d="M151.9,249.5c3.3,0,6.6,0,9.9,0c3.1,0,4.6,1.5,4.7,4.6c0,2.5,0.1,5,0,7.5c-0.1,2.8-1.6,4.4-4.4,4.4
		c-6.9,0.1-13.7,0.1-20.6,0c-4.7-0.1-8.2-3.8-8.1-8.5c0.1-4.5,3.6-7.9,8.3-8C145.2,249.5,148.5,249.5,151.9,249.5z"/>
</g>
</svg>
