<?xml version="1.0" encoding="utf-8"?>
<!-- Generator: Adobe Illustrator 24.1.2, SVG Export Plug-In . SVG Version: 6.00 Build 0)  -->
<svg version="1.1" id="Layer_1" xmlns="http://www.w3.org/2000/svg" xmlns:xlink="http://www.w3.org/1999/xlink" x="0px" y="0px"
	 viewBox="0 0 300 300" style="enable-background:new 0 0 300 300;" xml:space="preserve">
<style type="text/css">
	.st0{fill:#FFFFFF;}
</style>
<g>
	<path class="st0" d="M265.2,77.1c-0.9,4.3-1.5,8.7-2.8,12.9c-1.7,5.7-5.1,10.6-9.4,14.9c-3.2,3.2-7.9,3.4-11.4,0.5
		c-0.6-0.5-1.1-1-1.6-1.5c-14.7-14.7-29.4-29.4-44-44c-5-5-4.9-9.6,0.4-14.4c6.2-5.6,13.5-9,21.9-10.2c0.5-0.1,1-0.3,1.5-0.4
		c2.9,0,5.7,0,8.6,0c0.5,0.2,1,0.4,1.4,0.5c16,2.8,27.1,11.7,32.8,27c1.5,4,1.8,8.4,2.7,12.6C265.2,75.6,265.2,76.3,265.2,77.1z"/>
	<path class="st0" d="M96.6,231.8c-4.7,6.3-9.5,12.6-14.2,19c-2.7,3.5-5.3,7.1-8,10.6c-3.2,4.1-8,5-11.8,2.2
		c-3.9-2.8-4.4-7.9-1.3-12.1c7.2-9.6,14.4-19.2,21.6-28.8c0.4-0.6,0.9-1.2,1.4-1.9C63.7,197.9,55.4,171.3,61,141
		c4.1-22.5,15.7-40.8,33.8-54.8c36.2-28.1,88.2-24,120.4,9.3c31.4,32.4,35.5,87.3,0.1,125.3c0.5,0.7,1,1.4,1.5,2.1
		c7.1,9.5,14.2,19,21.3,28.4c1.7,2.2,2.7,4.6,2,7.5c-0.7,3.1-2.6,5.2-5.7,6.1c-3.1,0.9-5.8,0.2-8.1-2.1c-1.1-1.1-2-2.4-3-3.7
		c-6.4-8.5-12.8-17-19.2-25.6c-0.4-0.6-0.9-1.2-1.4-1.7C167.5,254.5,132.3,254.5,96.6,231.8z M158,133.5c0-8.1,0.1-16.2,0-24.3
		c-0.1-5.9-5.3-9.8-10.7-8.2c-3.7,1.1-5.8,4.3-5.8,8.9c0,11.4,0,22.8,0,34.2c0,3.8,0.8,7.9-0.4,11.4c-1.1,3.4-4.2,6.1-6.5,9.1
		c-5.3,7.1-10.7,14.1-15.9,21.3c-4.1,5.6-1.1,12.7,5.5,13.4c3.6,0.4,6.1-1.4,8.2-4.2c7.7-10.3,15.3-20.5,23.1-30.8
		c1.7-2.3,2.6-4.8,2.6-7.7C158,148.9,158,141.2,158,133.5z"/>
	<path class="st0" d="M74.7,35.1c12,0.2,21.3,3.7,29.2,11c4.1,3.8,4.4,8.7,0.5,12.6c-15.3,15.4-30.6,30.7-45.9,46
		c-3.9,3.9-9,3.7-12.6-0.5c-10.4-11.7-13.6-25.2-9-40.1C41.7,48.8,52.4,39.5,68,36C70.6,35.4,73.3,35.3,74.7,35.1z"/>
</g>
</svg>
