<?xml version="1.0" encoding="utf-8"?>
<!-- Generator: Adobe Illustrator 24.1.2, SVG Export Plug-In . SVG Version: 6.00 Build 0)  -->
<svg version="1.1" id="Layer_1" xmlns="http://www.w3.org/2000/svg" xmlns:xlink="http://www.w3.org/1999/xlink" x="0px" y="0px"
	 viewBox="0 0 300 300" style="enable-background:new 0 0 300 300;" xml:space="preserve">
<style type="text/css">
	.st0{fill:#FFFFFF;}
</style>
<g>
	<path class="st0" d="M13.3,110c0-4.8-0.1-9.4,0.1-14.1c0-0.7,1.2-1.6,2-2.1c20.4-12.2,40.9-24.3,61.3-36.5
		c18.3-10.9,36.6-21.7,54.9-32.6c4.8-2.9,9.4-3,14.2-0.2c38.9,23.1,77.8,46.2,116.7,69.3c1.4,0.8,2,1.8,1.9,3.4
		c-0.1,4.2,0,8.4,0,12.8C180.6,110,97.1,110,13.3,110z M138.7,47.5c-13.8,0-25,11.3-25,25c0,13.8,11.4,25.2,25.2,25.1
		c13.7-0.1,25-11.3,25-25.1C164,58.7,152.7,47.5,138.7,47.5z"/>
	<path class="st0" d="M145.2,248.2c0,8.3,0,16.7,0,25H13.5c0-5-0.4-9.9,0.1-14.6c0.7-5.9,5.7-10,11.7-10.4c0.9-0.1,1.8,0,2.7,0
		H145.2z"/>
	<path class="st0" d="M76.3,122.9c12.4,0,24.7,0,37.2,0c0,37.6,0,75.1,0,112.7c-12.4,0-24.7,0-37.2,0
		C76.3,198.1,76.3,160.6,76.3,122.9z"/>
	<path class="st0" d="M286.8,222.1c0,17,0,34.1,0,51.1c0,3.4-1,4.5-4,4.5c-41.4,0-82.8,0-124.1,0c-3.1,0-4-1.1-4-4.5v-6.8
		c0-6.9,0-13.8,0-20.7c0-3.5,0-7,0-10.4v-13.2c0-0.5,0-1,0.1-1.7h132C286.8,221,286.8,221.5,286.8,222.1z"/>
	<path class="st0" d="M201.4,122.9v61.5c-12.4,0-24.9,0-37.3,0v-61.5H201.4z"/>
	<path class="st0" d="M63.3,235.7c-8.3,0-16.4,0-24.6,0c0-37.6,0-75.1,0-112.7c8.1,0,16.3,0,24.6,0
		C63.3,160.5,63.3,197.9,63.3,235.7z"/>
	<path class="st0" d="M286.8,197.2c0,4.5,0,9,0,13.5c0,0.5-0.1,0.9-0.1,1.4h-132c0-0.5-0.1-1-0.1-1.4c0-4.5,0-9,0-13.5
		c0-3,1.1-4.1,3.7-4.1H171c10.7,0,21.5,0,32.2,0h32.5c15.8,0,31.6,0,47.4,0C285.8,193.1,286.8,194.3,286.8,197.2z"/>
	<path class="st0" d="M151.1,122.9v61.6h-1.6c-3.1,0-4.3,1.4-4.3,5c0,4,0,8,0,11.9l0,18.2v16h-18.7V122.9H151.1z"/>
	<rect x="214.4" y="122.9" class="st0" width="24.7" height="61.5"/>
	<path class="st0" d="M151.3,72.7c0,6.9-5.7,12.5-12.5,12.5c-6.9,0-12.5-5.6-12.5-12.6c0-7,5.7-12.7,12.7-12.6
		C145.9,60.1,151.4,65.7,151.3,72.7z"/>
</g>
</svg>
