<?xml version="1.0" encoding="utf-8"?>
<!-- Generator: Adobe Illustrator 24.1.2, SVG Export Plug-In . SVG Version: 6.00 Build 0)  -->
<svg version="1.1" id="Layer_1" xmlns="http://www.w3.org/2000/svg" xmlns:xlink="http://www.w3.org/1999/xlink" x="0px" y="0px"
	 viewBox="0 0 300 300" style="enable-background:new 0 0 300 300;" xml:space="preserve">
<style type="text/css">
	.st0{fill:#FFFFFF;}
</style>
<g>
	<path class="st0" d="M235.6,252.5c-8.5-2.8-16.9-5.5-25.3-8.3c-2.4-0.8-4.8-1.6-7.2-2.4c-3.4-1-4.9-0.2-5.6,3.3
		c-1.9,9.1-3.8,18.1-5.7,27.2c-0.1,0.6-0.4,1.2-0.7,2.4c-11.1-20.8-22-41.1-32.9-61.5c2.7-2.7,5.2-5.3,7.9-7.8
		c0.6-0.5,1.9-0.6,2.7-0.4c3.3,1.1,6.5,2.5,9.8,3.5c7.1,2,13.6-1,16.8-7.7c1.3-2.7,2.3-5.5,3.6-8.2c0.4-0.8,1.5-1.6,2.2-1.6
		c1.1,0,2.7,0.5,3.1,1.2c10.5,19.8,20.9,39.6,31.3,59.5C235.7,251.9,235.6,252.1,235.6,252.5z"/>
	<path class="st0" d="M141.6,214.2c-10.3,19.8-20.9,40.1-31.9,61.2c-1.7-8.3-3.3-15.9-4.9-23.5c-0.4-1.9-0.8-3.8-1.2-5.7
		c-0.8-4.2-2.3-5-6.3-3.7c-9.7,3.2-19.4,6.4-29.1,9.6c-0.9,0.3-1.8,0.5-3.2,1c0.5-1.1,0.8-1.9,1.2-2.6c9.9-18.9,19.8-37.8,29.8-56.6
		c0.5-1,1.8-1.7,2.7-2.5c0.8,0.9,1.7,1.6,2.2,2.6c1.2,2.5,2.1,5.2,3.3,7.7c3.5,7.1,11.4,9.9,18.6,6.9c2.6-1.1,5.2-2,7.7-3.2
		c1.5-0.7,2.5-0.4,3.5,0.8C136.5,208.7,138.9,211.3,141.6,214.2z"/>
	<path class="st0" d="M239.7,112c-2.7-2.8-5.4-5.5-8.2-8.2c-1.8-1.7-2.2-3.4-1.2-5.7c1.5-3.3,2.9-6.7,4.3-10.1
		c1.9-4.6,0.5-8.1-4.1-10.1c-3.1-1.4-6.2-2.8-9.3-3.9c-3-1.1-4.3-2.8-4.1-6c0.2-3.6,0.1-7.2,0-10.7c-0.1-4.8-2.8-7.5-7.6-7.5
		c-3.9,0-7.7-0.1-11.6,0c-2.4,0.1-3.8-0.9-4.6-3.1c-1.4-3.6-2.9-7.1-4.5-10.7c-1.9-4.2-5.5-5.6-9.8-3.8c-3.5,1.4-7,2.9-10.4,4.4
		c-2.1,1-3.9,0.7-5.5-1c-2.7-2.8-5.4-5.5-8.2-8.2c-3.4-3.4-6.7-3.4-10.1-0.1c-2.8,2.7-5.5,5.4-8.2,8.2c-1.7,1.8-3.5,2.1-5.7,1.1
		c-3.1-1.5-6.4-2.7-9.6-4.1c-5.3-2.2-8.5-0.9-10.8,4.5c-1.4,3.3-2.8,6.6-4.2,9.9c-0.8,2-2.2,3-4.4,3c-3.8-0.1-7.5-0.1-11.3,0
		c-4.8,0.1-7.5,2.7-7.6,7.6c-0.1,3.7-0.1,7.3,0,11c0.1,2.5-0.9,4-3.2,4.9c-3.4,1.3-6.8,2.8-10.1,4.3c-4.7,2-6.1,5.4-4.2,10.1
		c1.4,3.6,2.7,7.3,4.3,10.8c1.2,2.6,0.6,4.5-1.4,6.4c-2.6,2.4-5.1,5-7.6,7.6c-3.5,3.5-3.5,6.8-0.1,10.4c2.7,2.8,5.4,5.5,8.2,8.2
		c1.7,1.6,2.1,3.3,1.1,5.5c-1.5,3.3-2.9,6.7-4.3,10.1c-1.9,4.7-0.6,8.1,4,10.2c3.4,1.5,6.9,3,10.4,4.4c2.2,0.9,3.2,2.3,3.1,4.6
		c-0.1,3.8-0.1,7.5,0,11.3c0.1,4.8,2.7,7.3,7.4,7.4c1.7,0,3.5,0,5.2,0v-0.1c1.6,0,3.3,0.1,4.9,0c3.3-0.4,5.2,1.1,6.3,4.2
		c1.2,3.4,2.7,6.6,4.2,9.9c1.9,4,5.2,5.2,9.3,3.5c3.7-1.5,7.4-2.9,11-4.4c2.2-0.9,4-0.6,5.7,1.2c2.3,2.5,4.8,4.8,7.2,7.2
		c3.9,3.8,7.3,3.9,11.3,0c2.6-2.5,5.1-5,7.6-7.6c1.7-1.8,3.5-2.1,5.7-1.1c3.5,1.5,7,2.8,10.5,4.2c4.8,1.9,8.2,0.5,10.2-4.3
		c1.4-3.4,2.9-6.7,4.2-10.1c0.9-2.2,2.5-3.3,4.9-3.2c3.3,0.1,6.6,0.1,9.9,0.2c6.2,0.1,8.7-2.3,8.7-8.5c0-3,0.2-6-0.1-9
		c-0.3-3.5,1.2-5.3,4.4-6.5c3.3-1.1,6.5-2.6,9.6-4c4.1-1.9,5.4-5.4,3.7-9.6c-1.4-3.4-2.7-6.8-4.3-10.1c-1.2-2.5-0.7-4.3,1.3-6.2
		c2.8-2.6,5.6-5.4,8.2-8.2C242.9,118.5,242.8,115.1,239.7,112z M134.6,137.3c-4.7-4.7-9.4-9.4-14.2-14.1c-1.7-1.7-2.6-3.5-0.8-5.6
		c1.5-1.7,3.6-1.5,5.8,0.7c4.2,4.2,8.5,8.5,13.3,13.4c1-1.3,1.6-2.3,2.4-3.1c10.9-11,21.9-21.9,32.8-32.8c0.7-0.7,1.4-1.8,2.1-1.9
		c1.4-0.2,3.3-0.2,4.1,0.6c0.8,0.8,0.7,2.7,0.4,4.1c-0.1,0.8-1.2,1.5-1.9,2.1c-12.2,12.2-24.3,24.3-36.5,36.5
		C139,140.5,137.8,140.5,134.6,137.3z"/>
</g>
</svg>
