<?xml version="1.0" encoding="utf-8"?>
<!-- Generator: Adobe Illustrator 24.1.2, SVG Export Plug-In . SVG Version: 6.00 Build 0)  -->
<svg version="1.1" id="Layer_1" xmlns="http://www.w3.org/2000/svg" xmlns:xlink="http://www.w3.org/1999/xlink" x="0px" y="0px"
	 viewBox="0 0 300 300" style="enable-background:new 0 0 300 300;" xml:space="preserve">
<style type="text/css">
	.st0{fill:#FFFFFF;}
</style>
<g>
	<path class="st0" d="M141.9,289.5c-4.8-0.7-9.7-1.2-14.5-2.1c-24.5-4.3-46-14.9-64.3-31.6c-20.8-19-34-42.4-39.7-70.1
		c-11.5-54.9,16.2-113.6,66-139.4c5.1-2.7,10.5-4.9,15.9-7.1c5.4-2.2,10-0.4,11.7,4.2c1.7,4.6-0.6,9-6,11
		c-31.8,12.2-54,34.2-66.4,65.8c-17,43.3-4.1,94.4,31.1,124.8c17.9,15.5,38.5,24.8,62,27.4c48.4,5.3,94.1-20.7,114.4-64.4
		c30.3-65.1-6.5-140.9-76.2-157.5c-1.1-0.3-2.1-0.4-3.2-0.7c-0.2,0.3-0.5,0.5-0.7,0.8c1.4,1.1,2.9,2,4.1,3.3
		c3.6,3.6,3.6,8.6,0.3,11.9c-3.3,3.2-8.2,3.2-11.7-0.3c-6.8-6.7-13.5-13.4-20.2-20.2c-3.6-3.7-3.6-8.4,0.1-12.1
		c6.6-6.7,13.3-13.4,20-20c3.6-3.6,8.6-3.6,11.9-0.3c3.2,3.3,3.1,8.2-0.3,11.7c-2.3,2.4-4.7,4.8-7,7.2c-0.1,0.1-0.1,0.2-0.2,0.6
		c2.3,0.5,4.7,0.9,7,1.4c51.2,10.1,92,52,101.1,103.7c12.2,69.7-32.5,135.4-102,149.5c-4.8,1-9.7,1.3-14.6,2
		c-0.8,0.1-1.6,0.3-2.3,0.5C152.8,289.5,147.4,289.5,141.9,289.5z"/>
	<path class="st0" d="M138.1,209.9c-7-3.2-13.4-5.8-19.4-9.1c-6.1-3.4-7.6-10.3-4.2-15.8c3.4-5.4,10.2-7,16-3.1
		c6.1,4,12.6,5,19.6,4.6c8-0.5,14.3-6.8,14.7-14.7c0.3-5.2-2.4-9.2-7.8-11.5c-6.5-2.7-13.2-5.3-19.7-8.1c-2.3-1-4.4-2.3-6.6-3.5
		c-11-6.2-16.2-15.8-15.1-28.2c1.1-12.6,7.4-22.1,19.1-27.4c2.3-1.1,3.4-2.1,3.4-4.8c0-6.6,5.1-11.6,11.3-11.5
		c6.1,0.1,10.9,4.8,11,11.3c0,2.3,0.9,3.1,3,3.8c3.7,1.4,7.4,3.1,10.7,5.3c5.5,3.6,6.8,10.5,3.3,15.7c-3.4,5.1-10.1,6.5-15.5,2.9
		c-5.3-3.5-10.8-4.3-16.7-2.7c-4.4,1.2-6.4,4.5-7.1,8.7c-0.7,4,1.5,6.4,4.8,7.9c6.7,3,13.3,6.1,20.2,8.8c15.2,5.9,24,17.4,24.2,32.1
		c0.2,15.3-9.3,29.6-23.6,35.5c-2,0.8-3.3,1.5-3.3,4.1c0,7.8-4.4,12.8-11,12.8c-6.5,0.1-11.1-5.1-11.4-12.7
		C138.1,210,138,209.5,138.1,209.9z"/>
</g>
</svg>
