<?xml version="1.0" encoding="utf-8"?>
<!-- Generator: Adobe Illustrator 25.4.1, SVG Export Plug-In . SVG Version: 6.00 Build 0)  -->
<svg version="1.1" id="Layer_1" xmlns="http://www.w3.org/2000/svg" xmlns:xlink="http://www.w3.org/1999/xlink" x="0px" y="0px"
	 viewBox="0 0 433.31 433.31" style="enable-background:new 0 0 433.31 433.31;" xml:space="preserve">
<style type="text/css">
	.st0{fill:#FFFFFF;}
</style>
<path class="st0" d="M229.75,418.72c-8,0-16,0-24,0c-1.03-0.23-2.05-0.58-3.09-0.66c-32.04-2.26-62.01-11.4-89.35-28.13
	c-53.06-32.46-85.71-79.25-97.17-140.47c-1.43-7.66-2.14-15.46-3.19-23.19c0-7.99,0-15.97,0-23.96c0.33-2.87,0.66-5.75,0.98-8.62
	c4.84-43.28,21.12-81.66,50.18-114.22c38.58-43.23,87.12-66.53,145.05-69.34c40.4-1.96,78.38,7.44,112.95,28.49
	c53.15,32.36,85.77,79.24,97.25,140.48c1.44,7.66,2.14,15.47,3.19,23.2c0,7.99,0,15.97,0,23.96c-0.33,2.87-0.66,5.74-0.98,8.62
	c-4.9,43.99-21.73,82.79-51.44,115.7c-31.54,34.93-70.61,56.74-117.11,64.95C245.32,416.9,237.51,417.67,229.75,418.72z
	 M244.76,214.16c-1.32,1.39-2.28,2.45-3.3,3.47c-22.52,22.49-45.05,44.97-67.56,67.46c-1.32,1.31-2.63,2.65-3.77,4.12
	c-5.81,7.49-4.36,18.04,3.2,23.76c7.36,5.57,16.3,4.56,23.72-2.83c27.26-27.16,54.49-54.35,81.73-81.54
	c9.75-9.73,9.72-18.9-0.07-28.67c-26.95-26.9-53.91-53.8-80.88-80.69c-1.32-1.31-2.66-2.64-4.15-3.73
	c-4.06-2.99-8.63-4.15-13.59-2.98c-6.47,1.53-10.86,5.47-12.78,11.89c-2.04,6.82,0.09,12.58,4.94,17.46
	c11.37,11.42,22.79,22.78,34.2,34.16C219.09,188.61,231.74,201.19,244.76,214.16z"/>
</svg>
