<?xml version="1.0" encoding="utf-8"?>
<!-- Generator: Adobe Illustrator 24.1.2, SVG Export Plug-In . SVG Version: 6.00 Build 0)  -->
<svg version="1.1" id="Layer_1" xmlns="http://www.w3.org/2000/svg" xmlns:xlink="http://www.w3.org/1999/xlink" x="0px" y="0px"
	 viewBox="0 0 300 300" style="enable-background:new 0 0 300 300;" xml:space="preserve">
<style type="text/css">
	.st0{fill:#FFFFFF;}
</style>
<path class="st0" d="M147.4,32.5c1.9,0,3.7,0,5.6,0c0.1,0.1,0.2,0.2,0.4,0.3c24.9,8.1,49.9,16.1,74.8,24.2
	c5.6,1.8,11.1,3.7,16.6,5.8c5.2,2,10,4.9,10.8,10.4c1.7,10.7,3.2,21.5,4.2,32.3c1.8,18,2.1,36.1,0.5,54.1c-0.6,7-1.3,14.1-3.3,20.8
	c-3.7,12.3-11.8,22.4-21.1,31.8c-22,22.1-48.5,39-77.3,53.1c-5.8,2.8-11.3,2.9-16.9-0.1c-8-4.3-16.2-8.3-24-12.9
	c-19.5-11.3-37.5-24.3-52.9-39.9c-9.1-9.2-16.8-19.2-21.1-31.1c-3-8.5-3.8-17.4-4.4-26.2c-1.7-26-0.2-51.8,4.7-77.5
	c1.3-7.1,4.4-12.4,12.1-15c22.7-7.6,45.4-15.3,68.1-22.8C131.9,37.3,139.7,35,147.4,32.5z M138.2,168.2
	C138.2,168.2,138.2,168.2,138.2,168.2c0,3.4-0.1,6.9,0.1,10.3c0.3,5.5,5.5,10,11.7,10.1c6.4,0.1,12-4.1,12.2-9.8
	c0.3-6.5,0.2-13,0.1-19.5c0-2,0.5-3.2,2.5-4.4c10.4-6.2,14.3-18.3,9.6-28.7c-4.7-10.3-16.8-16.3-29.1-14.4
	c-10.7,1.7-19.3,9.2-21.3,18.6c-2.2,10.1,2.5,19.9,12.2,25.2c1.5,0.8,2.1,1.6,2.1,3.2C138.1,161.9,138.2,165.1,138.2,168.2z"/>
</svg>
